<svg id="Ebene_1" data-name="Ebene 1" xmlns="http://www.w3.org/2000/svg" viewBox="0 0 128.71 128.71"><defs><style>.cls-1,.cls-10,.cls-11{fill:#25383c;}.cls-2{font-size:4.48px;}.cls-2,.cls-4,.cls-9{fill:#82bd47;}.cls-11,.cls-2,.cls-9{font-family:Consolas, Consolas;}.cls-3{fill:#e62931;}.cls-5{fill:#44ace2;}.cls-6{fill:#fcc119;}.cls-7{fill:#fff;}.cls-8{fill:#f7a620;}.cls-9{font-size:4.25px;}.cls-10{font-size:20.53px;font-family:Consolas-Bold, Consolas;font-weight:700;}.cls-11{font-size:7.04px;}.cls-12{fill:none;stroke:#25383c;stroke-miterlimit:10;}</style></defs><title>logo-jan-styleguide-v03</title><g id="logo2"><path class="cls-1" d="M120,3a5.67,5.67,0,0,1,5.67,5.67V120a5.67,5.67,0,0,1-5.67,5.67H8.67A5.67,5.67,0,0,1,3,120V8.67A5.67,5.67,0,0,1,8.67,3H120m0-3H8.67A8.68,8.68,0,0,0,0,8.67V120a8.68,8.68,0,0,0,8.67,8.67H120a8.68,8.68,0,0,0,8.67-8.67V8.67A8.68,8.68,0,0,0,120,0Z"/><rect class="cls-1" x="86.39" y="57.44" width="34.46" height="23.58" rx="5.67" ry="5.67"/><text class="cls-2" transform="translate(88.86 62.34)"># Shell<tspan class="cls-3"><tspan x="0" y="5.37">$ vi main.c</tspan><tspan x="0" y="10.75">$ make</tspan><tspan x="0" y="16.12">$ git status</tspan></tspan></text><rect class="cls-1" x="7.77" y="29.46" width="73.74" height="38.08" rx="5.67" ry="5.67"/><text class="cls-2" transform="translate(9.93 35.92) scale(1.02 1)">// main.c<tspan class="cls-3" x="22.16" y="0"> </tspan><tspan class="cls-3"><tspan x="0" y="5.37">#include </tspan><tspan class="cls-4" x="22.16" y="5.37">&lt;stdio.h&gt;</tspan></tspan><tspan class="cls-5"><tspan x="0" y="10.75">int</tspan><tspan class="cls-3" x="7.39" y="10.75"> </tspan><tspan class="cls-6" x="9.85" y="10.75">main</tspan><tspan class="cls-7" x="19.7" y="10.75">(</tspan><tspan x="22.16" y="10.75">void</tspan><tspan class="cls-7" x="32.01" y="10.75">){</tspan></tspan><tspan class="cls-3"><tspan x="0" y="16.12" xml:space="preserve">  </tspan><tspan class="cls-6" x="4.92" y="16.12">printf</tspan><tspan class="cls-7" x="19.7" y="16.12">(</tspan><tspan class="cls-4" x="22.16" y="16.12">&quot;Hallo C</tspan><tspan class="cls-8" x="41.86" y="16.12">\n</tspan><tspan class="cls-4" x="46.78" y="16.12">&quot;</tspan><tspan class="cls-7" x="49.25" y="16.12">);</tspan><tspan x="0" y="21.49" xml:space="preserve">  return </tspan><tspan class="cls-7" x="22.16" y="21.49">0;</tspan></tspan><tspan class="cls-7"><tspan x="0" y="26.87">}</tspan></tspan></text><rect class="cls-1" x="7.81" y="72.31" width="73.74" height="38.08" rx="5.67" ry="5.67"/><text class="cls-9" transform="translate(10.2 77.12) scale(1.02 1)">// main.cpp<tspan class="cls-3"><tspan x="0" y="5.1">#include</tspan><tspan class="cls-7" x="18.69" y="5.1"> </tspan><tspan class="cls-4" x="21.03" y="5.1">&lt;iostream&gt;</tspan><tspan class="cls-7" x="44.39" y="5.1"> </tspan><tspan x="0" y="10.2">using namespace</tspan><tspan class="cls-7" x="35.05" y="10.2" xml:space="preserve"> std;</tspan></tspan><tspan class="cls-5"><tspan x="0" y="15.3">int</tspan><tspan class="cls-7" x="7.01" y="15.3"> </tspan><tspan class="cls-6" x="9.35" y="15.3">main</tspan><tspan class="cls-7" x="18.69" y="15.3">(</tspan><tspan x="21.03" y="15.3">void</tspan><tspan class="cls-7" x="30.37" y="15.3">) {</tspan></tspan><tspan class="cls-7"><tspan x="0" y="20.4" xml:space="preserve">  cout &lt;&lt; </tspan><tspan class="cls-4" x="23.36" y="20.4">&quot;Hallo C++&quot;</tspan><tspan x="49.06" y="20.4" xml:space="preserve"> &lt;&lt; </tspan><tspan class="cls-4" x="58.41" y="20.4">&quot;</tspan><tspan class="cls-8" x="60.75" y="20.4">\n</tspan><tspan class="cls-4" x="65.42" y="20.4">&quot;</tspan><tspan x="67.76" y="20.4">;</tspan><tspan x="0" y="25.5" xml:space="preserve">  </tspan><tspan class="cls-3" x="4.67" y="25.5">return</tspan><tspan x="18.69" y="25.5" xml:space="preserve"> 0;</tspan><tspan x="0" y="30.6">}</tspan></tspan></text><text class="cls-10" transform="translate(19.58 22.06) scale(0.79 1)">sourceCode</text><text class="cls-11" transform="translate(26.11 120.79)">ju -- https://bw1.eu</text><g id="enter"><rect class="cls-12" x="91.39" y="96.35" width="25.39" height="10.47" rx="3.18" ry="3.18"/><line class="cls-12" x1="103.37" y1="101.59" x2="110.47" y2="101.59"/><polygon class="cls-1" points="104.51 105.48 97.77 101.59 104.51 97.7 104.51 105.48"/><line class="cls-12" x1="110.15" y1="101.9" x2="110.15" y2="98.99"/></g></g></svg>